<?xml version="1.0" encoding="UTF-8" standalone="no"?>
<!DOCTYPE svg PUBLIC "-//W3C//DTD SVG 1.1//EN"
 "http://www.w3.org/Graphics/SVG/1.1/DTD/svg11.dtd">
<!-- Generated by graphviz version 2.47.0 (20210316.0004)
 -->
<!-- Title: dbml Pages: 1 -->
<svg width="1559pt" height="813pt"
 viewBox="0.00 0.00 1559.27 812.92" xmlns="http://www.w3.org/2000/svg" xmlns:xlink="http://www.w3.org/1999/xlink">
<g id="graph0" class="graph" transform="scale(1 1) rotate(0) translate(4 808.92)">
<title>dbml</title>
<!-- Customer -->
<g id="Customer" class="node">
<title>Customer</title>
<ellipse fill="none" stroke="black" stroke-width="0" cx="1327.11" cy="-547.53" rx="224.31" ry="257.27"/>
<polygon fill="#1d71b8" stroke="transparent" points="1171.11,-667.53 1171.11,-727.53 1484.11,-727.53 1484.11,-667.53 1171.11,-667.53"/>
<polygon fill="none" stroke="#29235c" points="1171.11,-667.53 1171.11,-727.53 1484.11,-727.53 1484.11,-667.53 1171.11,-667.53"/>
<text text-anchor="start" x="1196.03" y="-688.73" font-family="Helvetica,sans-Serif" font-weight="bold" font-size="32.00" fill="#ffffff"> &#160;&#160;&#160;&#160;&#160;&#160;Customer &#160;&#160;&#160;&#160;&#160;&#160;</text>
<polygon fill="#e7e2dd" stroke="transparent" points="1171.11,-607.53 1171.11,-667.53 1484.11,-667.53 1484.11,-607.53 1171.11,-607.53"/>
<polygon fill="none" stroke="#29235c" points="1171.11,-607.53 1171.11,-667.53 1484.11,-667.53 1484.11,-607.53 1171.11,-607.53"/>
<text text-anchor="start" x="1182.11" y="-628.73" font-family="Helvetica,sans-Serif" font-weight="bold" font-size="32.00" fill="#29235c">id</text>
<text text-anchor="start" x="1207" y="-628.73" font-family="Helvetica,sans-Serif" font-size="32.00" fill="#29235c"> &#160;&#160;&#160;</text>
<text text-anchor="start" x="1330.9" y="-628.73" font-family="Helvetica,sans-Serif" font-style="italic" font-size="32.00" fill="#29235c">INTEGER</text>
<polygon fill="#e7e2dd" stroke="transparent" points="1171.11,-547.53 1171.11,-607.53 1484.11,-607.53 1484.11,-547.53 1171.11,-547.53"/>
<polygon fill="none" stroke="#29235c" points="1171.11,-547.53 1171.11,-607.53 1484.11,-607.53 1484.11,-547.53 1171.11,-547.53"/>
<text text-anchor="start" x="1182.11" y="-567.73" font-family="Helvetica,sans-Serif" font-size="32.00" fill="#29235c">name &#160;&#160;&#160;</text>
<text text-anchor="start" x="1316.69" y="-568.73" font-family="Helvetica,sans-Serif" font-style="italic" font-size="32.00" fill="#29235c">VARCHAR</text>
<polygon fill="#e7e2dd" stroke="transparent" points="1171.11,-487.53 1171.11,-547.53 1484.11,-547.53 1484.11,-487.53 1171.11,-487.53"/>
<polygon fill="none" stroke="#29235c" points="1171.11,-487.53 1171.11,-547.53 1484.11,-547.53 1484.11,-487.53 1171.11,-487.53"/>
<text text-anchor="start" x="1182.11" y="-507.73" font-family="Helvetica,sans-Serif" font-size="32.00" fill="#29235c">email &#160;&#160;&#160;</text>
<text text-anchor="start" x="1316.69" y="-508.73" font-family="Helvetica,sans-Serif" font-style="italic" font-size="32.00" fill="#29235c">VARCHAR</text>
<polygon fill="#e7e2dd" stroke="transparent" points="1171.11,-427.53 1171.11,-487.53 1484.11,-487.53 1484.11,-427.53 1171.11,-427.53"/>
<polygon fill="none" stroke="#29235c" points="1171.11,-427.53 1171.11,-487.53 1484.11,-487.53 1484.11,-427.53 1171.11,-427.53"/>
<text text-anchor="start" x="1181.9" y="-447.73" font-family="Helvetica,sans-Serif" font-size="32.00" fill="#29235c">credit_limit &#160;&#160;&#160;</text>
<text text-anchor="start" x="1370.05" y="-448.73" font-family="Helvetica,sans-Serif" font-style="italic" font-size="32.00" fill="#29235c">FLOAT</text>
<polygon fill="#e7e2dd" stroke="transparent" points="1171.11,-367.53 1171.11,-427.53 1484.11,-427.53 1484.11,-367.53 1171.11,-367.53"/>
<polygon fill="none" stroke="#29235c" points="1171.11,-367.53 1171.11,-427.53 1484.11,-427.53 1484.11,-367.53 1171.11,-367.53"/>
<text text-anchor="start" x="1182.11" y="-387.73" font-family="Helvetica,sans-Serif" font-size="32.00" fill="#29235c">balance &#160;&#160;&#160;</text>
<text text-anchor="start" x="1369.99" y="-388.73" font-family="Helvetica,sans-Serif" font-style="italic" font-size="32.00" fill="#29235c">FLOAT</text>
<polygon fill="none" stroke="#29235c" stroke-width="2" points="1169.61,-366.53 1169.61,-728.53 1484.61,-728.53 1484.61,-366.53 1169.61,-366.53"/>
</g>
<!-- Item -->
<g id="Item" class="node">
<title>Item</title>
<ellipse fill="none" stroke="black" stroke-width="0" cx="248.9" cy="-359.53" rx="248.8" ry="299.63"/>
<polygon fill="#1d71b8" stroke="transparent" points="74.9,-509.53 74.9,-569.53 422.9,-569.53 422.9,-509.53 74.9,-509.53"/>
<polygon fill="none" stroke="#29235c" points="74.9,-509.53 74.9,-569.53 422.9,-569.53 422.9,-509.53 74.9,-509.53"/>
<text text-anchor="start" x="155.54" y="-530.73" font-family="Helvetica,sans-Serif" font-weight="bold" font-size="32.00" fill="#ffffff"> &#160;&#160;&#160;&#160;&#160;&#160;Item &#160;&#160;&#160;&#160;&#160;&#160;</text>
<polygon fill="#e7e2dd" stroke="transparent" points="74.9,-449.53 74.9,-509.53 422.9,-509.53 422.9,-449.53 74.9,-449.53"/>
<polygon fill="none" stroke="#29235c" points="74.9,-449.53 74.9,-509.53 422.9,-509.53 422.9,-449.53 74.9,-449.53"/>
<text text-anchor="start" x="85.9" y="-470.73" font-family="Helvetica,sans-Serif" font-weight="bold" font-size="32.00" fill="#29235c">id</text>
<text text-anchor="start" x="110.79" y="-470.73" font-family="Helvetica,sans-Serif" font-size="32.00" fill="#29235c"> &#160;&#160;&#160;</text>
<text text-anchor="start" x="269.68" y="-470.73" font-family="Helvetica,sans-Serif" font-style="italic" font-size="32.00" fill="#29235c">INTEGER</text>
<polygon fill="#e7e2dd" stroke="transparent" points="74.9,-389.53 74.9,-449.53 422.9,-449.53 422.9,-389.53 74.9,-389.53"/>
<polygon fill="none" stroke="#29235c" points="74.9,-389.53 74.9,-449.53 422.9,-449.53 422.9,-389.53 74.9,-389.53"/>
<text text-anchor="start" x="85.9" y="-409.73" font-family="Helvetica,sans-Serif" font-size="32.00" fill="#29235c">order_id &#160;&#160;&#160;</text>
<text text-anchor="start" x="269.68" y="-410.73" font-family="Helvetica,sans-Serif" font-style="italic" font-size="32.00" fill="#29235c">INTEGER</text>
<polygon fill="#e7e2dd" stroke="transparent" points="74.9,-329.53 74.9,-389.53 422.9,-389.53 422.9,-329.53 74.9,-329.53"/>
<polygon fill="none" stroke="#29235c" points="74.9,-329.53 74.9,-389.53 422.9,-389.53 422.9,-329.53 74.9,-329.53"/>
<text text-anchor="start" x="85.43" y="-349.73" font-family="Helvetica,sans-Serif" font-size="32.00" fill="#29235c">product_id &#160;&#160;&#160;</text>
<text text-anchor="start" x="269.79" y="-350.73" font-family="Helvetica,sans-Serif" font-style="italic" font-size="32.00" fill="#29235c">INTEGER</text>
<polygon fill="#e7e2dd" stroke="transparent" points="74.9,-269.53 74.9,-329.53 422.9,-329.53 422.9,-269.53 74.9,-269.53"/>
<polygon fill="none" stroke="#29235c" points="74.9,-269.53 74.9,-329.53 422.9,-329.53 422.9,-269.53 74.9,-269.53"/>
<text text-anchor="start" x="85.9" y="-289.73" font-family="Helvetica,sans-Serif" font-size="32.00" fill="#29235c">quantity &#160;&#160;&#160;</text>
<text text-anchor="start" x="269.68" y="-290.73" font-family="Helvetica,sans-Serif" font-style="italic" font-size="32.00" fill="#29235c">INTEGER</text>
<polygon fill="#e7e2dd" stroke="transparent" points="74.9,-209.53 74.9,-269.53 422.9,-269.53 422.9,-209.53 74.9,-209.53"/>
<polygon fill="none" stroke="#29235c" points="74.9,-209.53 74.9,-269.53 422.9,-269.53 422.9,-209.53 74.9,-209.53"/>
<text text-anchor="start" x="85.9" y="-229.73" font-family="Helvetica,sans-Serif" font-size="32.00" fill="#29235c">unit_price &#160;&#160;&#160;</text>
<text text-anchor="start" x="308.78" y="-230.73" font-family="Helvetica,sans-Serif" font-style="italic" font-size="32.00" fill="#29235c">FLOAT</text>
<polygon fill="#e7e2dd" stroke="transparent" points="74.9,-149.53 74.9,-209.53 422.9,-209.53 422.9,-149.53 74.9,-149.53"/>
<polygon fill="none" stroke="#29235c" points="74.9,-149.53 74.9,-209.53 422.9,-209.53 422.9,-149.53 74.9,-149.53"/>
<text text-anchor="start" x="85.9" y="-169.73" font-family="Helvetica,sans-Serif" font-size="32.00" fill="#29235c">amount &#160;&#160;&#160;</text>
<text text-anchor="start" x="308.78" y="-170.73" font-family="Helvetica,sans-Serif" font-style="italic" font-size="32.00" fill="#29235c">FLOAT</text>
<polygon fill="none" stroke="#29235c" stroke-width="2" points="73.9,-148.53 73.9,-570.53 423.9,-570.53 423.9,-148.53 73.9,-148.53"/>
</g>
<!-- Order -->
<g id="Order" class="node">
<title>Order</title>
<ellipse fill="none" stroke="black" stroke-width="0" cx="800.38" cy="-577.53" rx="266.66" ry="214.92"/>
<polygon fill="#1d71b8" stroke="transparent" points="614.38,-667.53 614.38,-727.53 987.38,-727.53 987.38,-667.53 614.38,-667.53"/>
<polygon fill="none" stroke="#29235c" points="614.38,-667.53 614.38,-727.53 987.38,-727.53 987.38,-667.53 614.38,-667.53"/>
<text text-anchor="start" x="697.74" y="-688.73" font-family="Helvetica,sans-Serif" font-weight="bold" font-size="32.00" fill="#ffffff"> &#160;&#160;&#160;&#160;&#160;&#160;Order &#160;&#160;&#160;&#160;&#160;&#160;</text>
<polygon fill="#e7e2dd" stroke="transparent" points="614.38,-607.53 614.38,-667.53 987.38,-667.53 987.38,-607.53 614.38,-607.53"/>
<polygon fill="none" stroke="#29235c" points="614.38,-607.53 614.38,-667.53 987.38,-667.53 987.38,-607.53 614.38,-607.53"/>
<text text-anchor="start" x="625.38" y="-628.73" font-family="Helvetica,sans-Serif" font-weight="bold" font-size="32.00" fill="#29235c">id</text>
<text text-anchor="start" x="650.27" y="-628.73" font-family="Helvetica,sans-Serif" font-size="32.00" fill="#29235c"> &#160;&#160;&#160;</text>
<text text-anchor="start" x="834.16" y="-628.73" font-family="Helvetica,sans-Serif" font-style="italic" font-size="32.00" fill="#29235c">INTEGER</text>
<polygon fill="#e7e2dd" stroke="transparent" points="614.38,-547.53 614.38,-607.53 987.38,-607.53 987.38,-547.53 614.38,-547.53"/>
<polygon fill="none" stroke="#29235c" points="614.38,-547.53 614.38,-607.53 987.38,-607.53 987.38,-547.53 614.38,-547.53"/>
<text text-anchor="start" x="624.98" y="-567.73" font-family="Helvetica,sans-Serif" font-size="32.00" fill="#29235c">customer_id &#160;&#160;&#160;</text>
<text text-anchor="start" x="834.27" y="-568.73" font-family="Helvetica,sans-Serif" font-style="italic" font-size="32.00" fill="#29235c">INTEGER</text>
<polygon fill="#e7e2dd" stroke="transparent" points="614.38,-487.53 614.38,-547.53 987.38,-547.53 987.38,-487.53 614.38,-487.53"/>
<polygon fill="none" stroke="#29235c" points="614.38,-487.53 614.38,-547.53 987.38,-547.53 987.38,-487.53 614.38,-487.53"/>
<text text-anchor="start" x="625.38" y="-507.73" font-family="Helvetica,sans-Serif" font-size="32.00" fill="#29235c">order_date &#160;&#160;&#160;</text>
<text text-anchor="start" x="891.05" y="-508.73" font-family="Helvetica,sans-Serif" font-style="italic" font-size="32.00" fill="#29235c">DATE</text>
<polygon fill="#e7e2dd" stroke="transparent" points="614.38,-427.53 614.38,-487.53 987.38,-487.53 987.38,-427.53 614.38,-427.53"/>
<polygon fill="none" stroke="#29235c" points="614.38,-427.53 614.38,-487.53 987.38,-487.53 987.38,-427.53 614.38,-427.53"/>
<text text-anchor="start" x="625.38" y="-447.73" font-family="Helvetica,sans-Serif" font-size="32.00" fill="#29235c">amount_total &#160;&#160;&#160;</text>
<text text-anchor="start" x="873.26" y="-448.73" font-family="Helvetica,sans-Serif" font-style="italic" font-size="32.00" fill="#29235c">FLOAT</text>
<polygon fill="none" stroke="#29235c" stroke-width="2" points="612.88,-426.53 612.88,-728.53 987.88,-728.53 987.88,-426.53 612.88,-426.53"/>
</g>
<!-- Item&#45;&gt;Order -->
<!-- Item&#45;&gt;Order -->
<g id="edge2" class="edge">
<title>Item:e&#45;&gt;Order:w</title>
<path fill="none" stroke="#29235c" stroke-width="3" d="M423.9,-419.53C548.76,-419.53 488.54,-625.78 603.28,-637.05"/>
<polygon fill="#29235c" stroke="#29235c" stroke-width="3" points="603.23,-640.56 613.38,-637.53 603.56,-633.56 603.23,-640.56"/>
<text text-anchor="middle" x="619.6" y="-647.13" font-family="Helvetica,sans-Serif" font-size="32.00" fill="#29235c">*</text>
<text text-anchor="middle" x="415.01" y="-429.13" font-family="Helvetica,sans-Serif" font-size="32.00" fill="#29235c">1</text>
</g>
<!-- Product -->
<g id="Product" class="node">
<title>Product</title>
<ellipse fill="none" stroke="black" stroke-width="0" cx="800.38" cy="-172.53" rx="214.01" ry="172.57"/>
<polygon fill="#1d71b8" stroke="transparent" points="651.38,-232.53 651.38,-292.53 950.38,-292.53 950.38,-232.53 651.38,-232.53"/>
<polygon fill="none" stroke="#29235c" points="651.38,-232.53 651.38,-292.53 950.38,-292.53 950.38,-232.53 651.38,-232.53"/>
<text text-anchor="start" x="683.51" y="-253.73" font-family="Helvetica,sans-Serif" font-weight="bold" font-size="32.00" fill="#ffffff"> &#160;&#160;&#160;&#160;&#160;&#160;Product &#160;&#160;&#160;&#160;&#160;&#160;</text>
<polygon fill="#e7e2dd" stroke="transparent" points="651.38,-172.53 651.38,-232.53 950.38,-232.53 950.38,-172.53 651.38,-172.53"/>
<polygon fill="none" stroke="#29235c" points="651.38,-172.53 651.38,-232.53 950.38,-232.53 950.38,-172.53 651.38,-172.53"/>
<text text-anchor="start" x="662.38" y="-193.73" font-family="Helvetica,sans-Serif" font-weight="bold" font-size="32.00" fill="#29235c">id</text>
<text text-anchor="start" x="687.27" y="-193.73" font-family="Helvetica,sans-Serif" font-size="32.00" fill="#29235c"> &#160;&#160;&#160;</text>
<text text-anchor="start" x="797.16" y="-193.73" font-family="Helvetica,sans-Serif" font-style="italic" font-size="32.00" fill="#29235c">INTEGER</text>
<polygon fill="#e7e2dd" stroke="transparent" points="651.38,-112.53 651.38,-172.53 950.38,-172.53 950.38,-112.53 651.38,-112.53"/>
<polygon fill="none" stroke="#29235c" points="651.38,-112.53 651.38,-172.53 950.38,-172.53 950.38,-112.53 651.38,-112.53"/>
<text text-anchor="start" x="662.38" y="-132.73" font-family="Helvetica,sans-Serif" font-size="32.00" fill="#29235c">name &#160;&#160;&#160;</text>
<text text-anchor="start" x="782.96" y="-133.73" font-family="Helvetica,sans-Serif" font-style="italic" font-size="32.00" fill="#29235c">VARCHAR</text>
<polygon fill="#e7e2dd" stroke="transparent" points="651.38,-52.53 651.38,-112.53 950.38,-112.53 950.38,-52.53 651.38,-52.53"/>
<polygon fill="none" stroke="#29235c" points="651.38,-52.53 651.38,-112.53 950.38,-112.53 950.38,-52.53 651.38,-52.53"/>
<text text-anchor="start" x="662.25" y="-72.73" font-family="Helvetica,sans-Serif" font-size="32.00" fill="#29235c">unit_price &#160;&#160;&#160;</text>
<text text-anchor="start" x="836.32" y="-73.73" font-family="Helvetica,sans-Serif" font-style="italic" font-size="32.00" fill="#29235c">FLOAT</text>
<polygon fill="none" stroke="#29235c" stroke-width="2" points="649.88,-51.53 649.88,-293.53 950.88,-293.53 950.88,-51.53 649.88,-51.53"/>
</g>
<!-- Item&#45;&gt;Product -->
<!-- Item&#45;&gt;Product -->
<g id="edge4" class="edge">
<title>Item:e&#45;&gt;Product:w</title>
<path fill="none" stroke="#29235c" stroke-width="3" d="M423.9,-359.53C542.91,-359.53 528.84,-211.3 640.31,-202.9"/>
<polygon fill="#29235c" stroke="#29235c" stroke-width="3" points="640.52,-206.4 650.38,-202.53 640.26,-199.4 640.52,-206.4"/>
<text text-anchor="middle" x="656.6" y="-173.73" font-family="Helvetica,sans-Serif" font-size="32.00" fill="#29235c">*</text>
<text text-anchor="middle" x="415.01" y="-369.13" font-family="Helvetica,sans-Serif" font-size="32.00" fill="#29235c">1</text>
</g>
<!-- Order&#45;&gt;Customer -->
<!-- Order&#45;&gt;Customer -->
<g id="edge6" class="edge">
<title>Order:e&#45;&gt;Customer:w</title>
<path fill="none" stroke="#29235c" stroke-width="3" d="M988.38,-577.53C1069.95,-577.53 1083.98,-632.71 1160.01,-637.24"/>
<polygon fill="#29235c" stroke="#29235c" stroke-width="3" points="1160.02,-640.74 1170.11,-637.53 1160.22,-633.74 1160.02,-640.74"/>
<text text-anchor="middle" x="1163.89" y="-647.13" font-family="Helvetica,sans-Serif" font-size="32.00" fill="#29235c">*</text>
<text text-anchor="middle" x="997.28" y="-587.13" font-family="Helvetica,sans-Serif" font-size="32.00" fill="#29235c">1</text>
</g>
</g>
</svg>
